<svg width="324pt" height="354pt"
 viewBox="0.00 0.00 323.50 354.00" xmlns="http://www.w3.org/2000/svg" xmlns:xlink="http://www.w3.org/1999/xlink">
<g id="graph0" class="graph" transform="scale(1 1) rotate(0) translate(4 350)">
<title>basic</title>
<polygon fill="white" stroke="none" points="-4,4 -4,-350 319.5,-350 319.5,4 -4,4"/>

<g id="node1" class="node"><title>pickup</title>
<polygon fill="none" stroke="black" points="0,-0.5 0,-46.5 87,-46.5 87,-0.5 0,-0.5"/>
<text text-anchor="middle" x="28" y="-31.3" font-family="Times New Roman,serif" font-size="14.00">pickup</text>
<polyline fill="none" stroke="black" points="56,-23.5 56,-46.5 "/>
<text text-anchor="middle" x="71.5" y="-31.3" font-family="Times New Roman,serif" font-size="14.00">?a</text>
<polyline fill="none" stroke="black" points="0,-23.5 87,-23.5 "/>
<text text-anchor="middle" x="10" y="-8.3" font-family="Times New Roman,serif" font-size="14.00"> </text>
<polyline fill="none" stroke="black" points="20,-0.5 20,-23.5 "/>
<text text-anchor="start" x="28" y="-8.3" font-family="Times New Roman,serif" font-size="14.00">(have ?a)</text>
</g>

<g id="node2" class="node"><title>drop</title>
<polygon fill="none" stroke="black" points="159.5,-0.5 159.5,-46.5 315.5,-46.5 315.5,-0.5 159.5,-0.5"/>
<text text-anchor="middle" x="202" y="-31.3" font-family="Times New Roman,serif" font-size="14.00">drop</text>
<polyline fill="none" stroke="black" points="244.5,-23.5 244.5,-46.5 "/>
<text text-anchor="middle" x="280" y="-31.3" font-family="Times New Roman,serif" font-size="14.00">?a</text>
<polyline fill="none" stroke="black" points="159.5,-23.5 315.5,-23.5 "/>
<text text-anchor="start" x="167.5" y="-8.3" font-family="Times New Roman,serif" font-size="14.00">(have ?a)</text>
<polyline fill="none" stroke="black" points="226.5,-0.5 226.5,-23.5 "/>
<text text-anchor="start" x="234.5" y="-8.3" font-family="Times New Roman,serif" font-size="14.00">not (have ?a)</text>
</g>

<g id="node3" class="node"><title>swap</title>
<path fill="none" stroke="black" stroke-width="2" d="M91.5,-299.5C91.5,-299.5 187.5,-299.5 187.5,-299.5 193.5,-299.5 199.5,-305.5 199.5,-311.5 199.5,-311.5 199.5,-333.5 199.5,-333.5 199.5,-339.5 193.5,-345.5 187.5,-345.5 187.5,-345.5 91.5,-345.5 91.5,-345.5 85.5,-345.5 79.5,-339.5 79.5,-333.5 79.5,-333.5 79.5,-311.5 79.5,-311.5 79.5,-305.5 85.5,-299.5 91.5,-299.5"/>
<text text-anchor="middle" x="109.5" y="-330.3" font-family="Times New Roman,serif" font-size="14.00">swap</text>
<polyline fill="none" stroke="black" stroke-width="2" points="139.5,-322.5 139.5,-345.5 "/>
<text text-anchor="middle" x="169.5" y="-330.3" font-family="Times New Roman,serif" font-size="14.00">?x ?y</text>
<polyline fill="none" stroke="black" stroke-width="2" points="79.5,-322.5 199.5,-322.5 "/>
<text text-anchor="middle" x="109.5" y="-307.3" font-family="Times New Roman,serif" font-size="14.00">swap_0</text>
<polyline fill="none" stroke="black" stroke-width="2" points="139.5,-299.5 139.5,-322.5 "/>
<text text-anchor="middle" x="169.5" y="-307.3" font-family="Times New Roman,serif" font-size="14.00">swap_1</text>
</g>

<g id="node4" class="node"><title>label_swap_0</title>
<path fill="none" stroke="black" d="M27,-119.5C27,-119.5 92,-119.5 92,-119.5 98,-119.5 104,-125.5 104,-131.5 104,-131.5 104,-214.5 104,-214.5 104,-220.5 98,-226.5 92,-226.5 92,-226.5 27,-226.5 27,-226.5 21,-226.5 15,-220.5 15,-214.5 15,-214.5 15,-131.5 15,-131.5 15,-125.5 21,-119.5 27,-119.5"/>
<text text-anchor="middle" x="47" y="-211.3" font-family="Times New Roman,serif" font-size="14.00">swap_0</text>
<polyline fill="none" stroke="black" points="79,-203.5 79,-226.5 "/>
<text text-anchor="middle" x="91.5" y="-211.3" font-family="Times New Roman,serif" font-size="14.00"> </text>
<polyline fill="none" stroke="black" points="15,-203.5 104,-203.5 "/>
<text text-anchor="start" x="23" y="-188.3" font-family="Times New Roman,serif" font-size="14.00">(have ?x)</text>
<text text-anchor="start" x="23" y="-173.3" font-family="Times New Roman,serif" font-size="14.00">not (have ?y)</text>
<polyline fill="none" stroke="black" points="15,-165.5 104,-165.5 "/>
<text text-anchor="middle" x="59.5" y="-150.3" font-family="Times New Roman,serif" font-size="14.00">drop ?x</text>
<polyline fill="none" stroke="black" points="15,-142.5 104,-142.5 "/>
<text text-anchor="middle" x="59.5" y="-127.3" font-family="Times New Roman,serif" font-size="14.00">pickup ?y</text>
</g>

<g id="edge1" class="edge"><title>swap:n0&#45;&gt;label_swap_0</title>
<path fill="none" stroke="black" stroke-dasharray="1,5" d="M109.5,-299C109.5,-277.608 103.109,-255.535 94.8972,-236.002"/>
<polygon fill="black" stroke="black" points="97.9944,-234.353 90.7396,-226.631 91.5959,-237.191 97.9944,-234.353"/>
</g>

<g id="node5" class="node"><title>label_swap_1</title>
<path fill="none" stroke="black" d="M188,-119.5C188,-119.5 253,-119.5 253,-119.5 259,-119.5 265,-125.5 265,-131.5 265,-131.5 265,-214.5 265,-214.5 265,-220.5 259,-226.5 253,-226.5 253,-226.5 188,-226.5 188,-226.5 182,-226.5 176,-220.5 176,-214.5 176,-214.5 176,-131.5 176,-131.5 176,-125.5 182,-119.5 188,-119.5"/>
<text text-anchor="middle" x="208" y="-211.3" font-family="Times New Roman,serif" font-size="14.00">swap_1</text>
<polyline fill="none" stroke="black" points="240,-203.5 240,-226.5 "/>
<text text-anchor="middle" x="252.5" y="-211.3" font-family="Times New Roman,serif" font-size="14.00"> </text>
<polyline fill="none" stroke="black" points="176,-203.5 265,-203.5 "/>
<text text-anchor="start" x="184" y="-188.3" font-family="Times New Roman,serif" font-size="14.00">(have ?y)</text>
<text text-anchor="start" x="184" y="-173.3" font-family="Times New Roman,serif" font-size="14.00">not (have ?x)</text>
<polyline fill="none" stroke="black" points="176,-165.5 265,-165.5 "/>
<text text-anchor="middle" x="220.5" y="-150.3" font-family="Times New Roman,serif" font-size="14.00">drop ?y</text>
<polyline fill="none" stroke="black" points="176,-142.5 265,-142.5 "/>
<text text-anchor="middle" x="220.5" y="-127.3" font-family="Times New Roman,serif" font-size="14.00">pickup ?x</text>
</g>

<g id="edge4" class="edge"><title>swap:n1&#45;&gt;label_swap_1</title>
<path fill="none" stroke="black" stroke-dasharray="1,5" d="M169.5,-299C169.5,-277.549 176.019,-255.459 184.395,-235.928"/>
<polygon fill="black" stroke="black" points="187.7,-237.114 188.636,-226.56 181.323,-234.227 187.7,-237.114"/>
</g>

<g id="edge3" class="edge"><title>label_swap_0:n1&#45;&gt;pickup</title>
<path fill="none" stroke="black" d="M59.5,-119C59.5,-98.0378 55.6255,-74.8225 51.6897,-56.6477"/>
<polygon fill="black" stroke="black" points="55.0916,-55.8233 49.4578,-46.8505 48.2665,-57.3781 55.0916,-55.8233"/>
</g>

<g id="edge2" class="edge"><title>label_swap_0:n0&#45;&gt;drop</title>
<path fill="none" stroke="black" d="M105.5,-154C127.187,-154 124.137,-134.307 139.5,-119 161.672,-96.9094 187.128,-72.3871 206.538,-53.8595"/>
<polygon fill="black" stroke="black" points="209.102,-56.2508 213.926,-46.8179 204.273,-51.1836 209.102,-56.2508"/>
</g>

<g id="edge6" class="edge"><title>label_swap_1:n1&#45;&gt;pickup</title>
<path fill="none" stroke="black" d="M174.5,-131C149.943,-131 101.407,-85.3707 70.8056,-53.846"/>
<polygon fill="black" stroke="black" points="73.2648,-51.3538 63.813,-46.5669 68.2167,-56.2032 73.2648,-51.3538"/>
</g>

<g id="edge5" class="edge"><title>label_swap_1:n0&#45;&gt;drop</title>
<path fill="none" stroke="black" d="M266.5,-154C306.706,-154 278.621,-93.8232 256.667,-55.512"/>
<polygon fill="black" stroke="black" points="259.617,-53.6228 251.543,-46.7618 253.576,-57.1599 259.617,-53.6228"/>
</g>
</g>
</svg>
