<svg width="392pt" height="354pt" viewBox="0 0 392 354" xmlns="http://www.w3.org/2000/svg">
<style>svg{background-color:white}text{fill:black;font-size:14px}polyline{stroke:black}path{stroke:black;fill:none}polygon{stroke:black}</style>
<g transform="translate(4 350)"><title>basic</title>

<g><title>pickup</title>
<polygon fill="none" points="0,-0.5 0,-46.5 156,-46.5 156,-0.5"/>
<text text-anchor="middle" x="45.5" y="-31.3">pickup</text>
<polyline points="91,-23.5 91,-46.5"/>
<text text-anchor="middle" x="123.5" y="-31.3">?a</text>
<polyline points="0,-23.5 156,-23.5"/>
<text text-anchor="start" x="8" y="-8.3">not (have ?a)</text>
<polyline points="89,-0.5 89,-23.5"/>
<text text-anchor="start" x="97" y="-8.3">(have ?a)</text></g>

<g><title>drop</title>
<polygon fill="none" points="228,-0.5 228,-46.5 384,-46.5 384,-0.5"/>
<text text-anchor="middle" x="270.5" y="-31.3">drop</text>
<polyline points="313,-23.5 313,-46.5"/>
<text text-anchor="middle" x="348.5" y="-31.3">?a</text>
<polyline points="228,-23.5 384,-23.5"/>
<text text-anchor="start" x="236" y="-8.3">(have ?a)</text>
<polyline points="295,-0.5 295,-23.5"/>
<text text-anchor="start" x="303" y="-8.3">not (have ?a)</text></g>

<g><title>swap</title>
<path stroke-width="2" d="M112,-299.5C112,-299.5 272,-299.5 272,-299.5 278,-299.5 284,-305.5 284,-311.5 284,-311.5 284,-333.5 284,-333.5 284,-339.5 278,-345.5 272,-345.5 272,-345.5 112,-345.5 112,-345.5 106,-345.5 100,-339.5 100,-333.5 100,-333.5 100,-311.5 100,-311.5 100,-305.5 106,-299.5 112,-299.5"/>
<text text-anchor="middle" x="146" y="-330.3">swap</text>
<polyline stroke-width="2" points="192,-299.5 192,-345.5"/>
<text text-anchor="middle" x="238" y="-330.3">?x ?y</text>
<polyline stroke-width="2" points="100,-322.5 284,-322.5"/>
<text text-anchor="middle" x="146" y="-307.3">swap_case_0</text>
<text text-anchor="middle" x="238" y="-307.3">swap_case_1</text></g>

<g><title>label_swap_case_0</title>
<path d="M56,-119.5C56,-119.5 144,-119.5 144,-119.5 150,-119.5 156,-125.5 156,-131.5 156,-131.5 156,-214.5 156,-214.5 156,-220.5 150,-226.5 144,-226.5 144,-226.5 56,-226.5 56,-226.5 50,-226.5 44,-220.5 44,-214.5 44,-214.5 44,-131.5 44,-131.5 44,-125.5 50,-119.5 56,-119.5"/>
<text text-anchor="middle" x="90" y="-211.3">swap_case_0</text>
<polyline points="136,-203.5 136,-226.5"/>
<text text-anchor="middle" x="146" y="-211.3"> </text>
<polyline points="44,-203.5 156,-203.5"/>
<text text-anchor="start" x="52" y="-188.3">(have ?x)</text>
<text text-anchor="start" x="52" y="-173.3">not (have ?y)</text>
<polyline points="44,-165.5 156,-165.5"/>
<text text-anchor="middle" x="100" y="-150.3">drop ?x</text>
<polyline points="44,-142.5 156,-142.5"/>
<text text-anchor="middle" x="100" y="-127.3">pickup ?y</text></g>

<g><title>swap:n0&#45;&gt;label_swap_case_0</title>
<path stroke-dasharray="1,5" d="M146,-299C146,-277.737 140.065,-255.621 132.459,-236.009"/>
<polygon points="135.635,-234.528 128.609,-226.597 129.156,-237.178"/></g>

<g><title>label_swap_case_1</title>
<path d="M240,-119.5C240,-119.5 328,-119.5 328,-119.5 334,-119.5 340,-125.5 340,-131.5 340,-131.5 340,-214.5 340,-214.5 340,-220.5 334,-226.5 328,-226.5 328,-226.5 240,-226.5 240,-226.5 234,-226.5 228,-220.5 228,-214.5 228,-214.5 228,-131.5 228,-131.5 228,-125.5 234,-119.5 240,-119.5"/>
<text text-anchor="middle" x="274" y="-211.3">swap_case_1</text>
<polyline points="320,-203.5 320,-226.5"/>
<polyline points="228,-203.5 340,-203.5"/>
<text text-anchor="start" x="236" y="-188.3">(have ?y)</text>
<text text-anchor="start" x="236" y="-173.3">not (have ?x)</text>
<polyline points="228,-165.5 340,-165.5"/>
<text text-anchor="middle" x="284" y="-150.3">drop ?y</text>
<polyline points="228,-142.5 340,-142.5"/>
<text text-anchor="middle" x="284" y="-127.3">pickup ?x</text></g>

<g><title>swap:n1&#45;&gt;label_swap_case_1</title>
<path stroke-dasharray="1,5" d="M238,-299C238,-277.737 243.935,-255.621 251.541,-236.009"/>
<polygon points="254.844,-237.178 255.391,-226.597 248.365,-234.528"/></g>

<g><title>label_swap_case_0:n1&#45;&gt;pickup</title>
<path d="M100,-119C100,-97.7793 94.6725,-74.5598 89.2608,-56.4476"/>
<polygon points="92.5315,-55.181 86.192,-46.6922 85.8541,-57.2816"/></g>

<g><title>label_swap_case_0:n0&#45;&gt;drop</title>
<path d="M157,-154C178.999,-154 175.736,-133.814 192,-119 217.221,-96.0279 246.927,-71.4789 269.691,-53.1608"/>
<polygon points="272.128,-55.6931 277.743,-46.7083 267.751,-50.2307"/></g>

<g><title>label_swap_case_1:n1&#45;&gt;pickup</title>
<path d="M227,-131C200.247,-131 144.287,-84.9849 109.075,-53.4477"/>
<polygon points="111.229,-50.6766 101.463,-46.5669 106.534,-55.8693"/></g>

<g><title>label_swap_case_1:n0&#45;&gt;drop</title>
<path d="M341,-154C381.642,-154 350.61,-93.8232 326.736,-55.512"/>
<polygon points="329.492,-53.3228 321.173,-46.7618 323.585,-57.0785"/></g>
</g></svg>